<svg xmlns="http://www.w3.org/2000/svg" width="1200" height="688" viewBox="0 0 1200 688" role="img" aria-labelledby="title desc">
<title id="title">Tableau de bord des cours</title><desc id="desc">4 indicateurs : 6 matières, 147 fichiers, 10 PDF, 70,5 Mo. Durcissement Linux : 38 fichiers; Durcissement Windows : 2 fichiers; Reverse engineering : 92 fichiers; SCADA : 3 fichiers; Secu_shell : 2 fichiers; Sécurité Cloud : 10 fichiers</desc>
<defs><linearGradient id="bg" x2="1" y2="1"><stop stop-color="#101b31"/><stop offset="1" stop-color="#111326"/></linearGradient>
<linearGradient id="accent"><stop stop-color="#65e3da"/><stop offset="1" stop-color="#ab9bff"/></linearGradient></defs>
<g font-family="Segoe UI, Inter, Arial, sans-serif">
<rect x="0" y="0" width="1200" height="688" rx="26" fill="url(#bg)" />
<text x="40" y="49" font-size="17" fill="#a6b7d1" letter-spacing="2">LE DÉPÔT EN CHIFFRES</text>
<text x="1160" y="48" font-size="12" fill="#a6b7d1" text-anchor="end">UN INSTANTANÉ, PAS UN TAUX DE RÉUSSITE</text>
<rect x="40" y="75" width="262" height="139" rx="16" fill="#17243c" stroke="#2d3d57"/>
<rect x="60" y="95" width="24" height="3" rx="1" fill="#65e3da" />
<text x="60" y="147" font-size="40" fill="#edf3ff" font-weight="700">6</text>
<text x="60" y="176" font-size="12" fill="#65e3da" letter-spacing="1.8">MATIÈRES</text>
<text x="60" y="198" font-size="12" fill="#a6b7d1" >détectées automatiquement</text>
<rect x="326" y="75" width="262" height="139" rx="16" fill="#17243c" stroke="#2d3d57"/>
<rect x="346" y="95" width="24" height="3" rx="1" fill="#ab9bff" />
<text x="346" y="147" font-size="40" fill="#edf3ff" font-weight="700">147</text>
<text x="346" y="176" font-size="12" fill="#ab9bff" letter-spacing="1.8">FICHIERS</text>
<text x="346" y="198" font-size="12" fill="#a6b7d1" >suivis par Git</text>
<rect x="612" y="75" width="262" height="139" rx="16" fill="#17243c" stroke="#2d3d57"/>
<rect x="632" y="95" width="24" height="3" rx="1" fill="#ffca80" />
<text x="632" y="147" font-size="40" fill="#edf3ff" font-weight="700">10</text>
<text x="632" y="176" font-size="12" fill="#ffca80" letter-spacing="1.8">PDF</text>
<text x="632" y="198" font-size="12" fill="#a6b7d1" >supports et rendus</text>
<rect x="898" y="75" width="262" height="139" rx="16" fill="#17243c" stroke="#2d3d57"/>
<rect x="918" y="95" width="24" height="3" rx="1" fill="#8a9dbb" />
<text x="918" y="147" font-size="40" fill="#edf3ff" font-weight="700">70,5 Mo</text>
<text x="918" y="176" font-size="12" fill="#8a9dbb" letter-spacing="1.8">VOLUME</text>
<text x="918" y="198" font-size="12" fill="#a6b7d1" >hors historique Git</text>
<rect x="40" y="240" width="660" height="407" rx="16" fill="#141e33" stroke="#293852"/>
<rect x="722" y="240" width="438" height="407" rx="16" fill="#141e33" stroke="#293852"/>
<text x="62" y="278" font-size="23" fill="#edf3ff" font-weight="650">La carte des matières</text>
<text x="62" y="304" font-size="14" fill="#a6b7d1" >Nombre de fichiers par matière</text>
<text x="747" y="278" font-size="23" fill="#edf3ff" font-weight="650">Dans le sac</text>
<text x="62" y="340" font-size="16" fill="#edf3ff" >Reverse engineering</text>
<text x="675" y="340" font-size="16" fill="#b7c7df" text-anchor="end">92</text>
<rect x="62" y="351" width="613" height="9" rx="4" fill="#29354e" />
<rect x="62.0" y="351" width="26.65" height="9" rx="0" fill="#65e3da" />
<rect x="88.65" y="351" width="26.65" height="9" rx="0" fill="#ab9bff" />
<rect x="115.3" y="351" width="53.3" height="9" rx="0" fill="#ffca80" />
<rect x="168.61" y="351" width="506.39" height="9" rx="0" fill="#8a9dbb" />
<text x="62" y="397" font-size="16" fill="#edf3ff" >Durcissement Linux</text>
<text x="675" y="397" font-size="16" fill="#b7c7df" text-anchor="end">38</text>
<rect x="62" y="408" width="613" height="9" rx="4" fill="#29354e" />
<rect x="62.0" y="408" width="53.3" height="9" rx="0" fill="#65e3da" />
<rect x="115.3" y="408" width="19.99" height="9" rx="0" fill="#ab9bff" />
<rect x="135.29" y="408" width="173.24" height="9" rx="0" fill="#ffca80" />
<rect x="308.53" y="408" width="6.66" height="9" rx="0" fill="#8a9dbb" />
<text x="62" y="454" font-size="16" fill="#edf3ff" >Sécurité Cloud</text>
<text x="675" y="454" font-size="16" fill="#b7c7df" text-anchor="end">10</text>
<rect x="62" y="465" width="613" height="9" rx="4" fill="#29354e" />
<rect x="62.0" y="465" width="26.65" height="9" rx="0" fill="#65e3da" />
<rect x="88.65" y="465" width="19.99" height="9" rx="0" fill="#ab9bff" />
<rect x="108.64" y="465" width="19.99" height="9" rx="0" fill="#ffca80" />
<text x="62" y="511" font-size="16" fill="#edf3ff" >SCADA</text>
<text x="675" y="511" font-size="16" fill="#b7c7df" text-anchor="end">3</text>
<rect x="62" y="522" width="613" height="9" rx="4" fill="#29354e" />
<rect x="62.0" y="522" width="19.99" height="9" rx="0" fill="#65e3da" />
<text x="62" y="568" font-size="16" fill="#edf3ff" >Durcissement Windows</text>
<text x="675" y="568" font-size="16" fill="#b7c7df" text-anchor="end">2</text>
<rect x="62" y="579" width="613" height="9" rx="4" fill="#29354e" />
<rect x="62.0" y="579" width="6.66" height="9" rx="0" fill="#65e3da" />
<rect x="68.66" y="579" width="6.66" height="9" rx="0" fill="#ab9bff" />
<text x="62" y="625" font-size="16" fill="#edf3ff" >Secu_shell</text>
<text x="675" y="625" font-size="16" fill="#b7c7df" text-anchor="end">2</text>
<rect x="62" y="636" width="613" height="9" rx="4" fill="#29354e" />
<rect x="62.0" y="636" width="6.66" height="9" rx="0" fill="#ab9bff" />
<rect x="68.66" y="636" width="6.66" height="9" rx="0" fill="#8a9dbb" />
<circle cx="941" cy="383" r="68" fill="none" stroke="#29354e" stroke-width="20"/>
<circle cx="941" cy="383" r="68" fill="none" stroke="#65e3da" stroke-width="20" stroke-dasharray="58.1301 369.1265" stroke-dashoffset="-0.0000" transform="rotate(-90 941 383)"/>
<circle cx="941" cy="383" r="68" fill="none" stroke="#ab9bff" stroke-width="20" stroke-dasharray="34.8781 392.3785" stroke-dashoffset="-58.1301" transform="rotate(-90 941 383)"/>
<circle cx="941" cy="383" r="68" fill="none" stroke="#ffca80" stroke-width="20" stroke-dasharray="107.5408 319.7158" stroke-dashoffset="-93.0082" transform="rotate(-90 941 383)"/>
<circle cx="941" cy="383" r="68" fill="none" stroke="#8a9dbb" stroke-width="20" stroke-dasharray="226.7076 200.5490" stroke-dashoffset="-200.5490" transform="rotate(-90 941 383)"/>
<text x="941" y="387" font-size="35" fill="#edf3ff" text-anchor="middle" font-weight="700">147</text>
<text x="941" y="412" font-size="14" fill="#a6b7d1" text-anchor="middle">fichiers</text>
<rect x="748" y="479" width="10" height="10" rx="3" fill="#65e3da" />
<text x="770" y="489" font-size="15" fill="#c5d3e8" >Notes</text>
<text x="1135" y="489" font-size="15" fill="#edf3ff" text-anchor="end">20  /  13,6 %</text>
<rect x="748" y="506" width="10" height="10" rx="3" fill="#ab9bff" />
<text x="770" y="516" font-size="15" fill="#c5d3e8" >Supports</text>
<text x="1135" y="516" font-size="15" fill="#edf3ff" text-anchor="end">12  /  8,2 %</text>
<rect x="748" y="533" width="10" height="10" rx="3" fill="#ffca80" />
<text x="770" y="543" font-size="15" fill="#c5d3e8" >Code &amp; config</text>
<text x="1135" y="543" font-size="15" fill="#edf3ff" text-anchor="end">37  /  25,2 %</text>
<rect x="748" y="560" width="10" height="10" rx="3" fill="#8a9dbb" />
<text x="770" y="570" font-size="15" fill="#c5d3e8" >Autres</text>
<text x="1135" y="570" font-size="15" fill="#edf3ff" text-anchor="end">78  /  53,1 %</text>
<text x="40" y="674" font-size="12" fill="#9cafcb" >Calculé depuis les fichiers versionnés · Notes, supports, code, configurations et ressources de laboratoire</text>
</g></svg>
